<?xml version="1.0" encoding="utf-8"?>
<!-- Generator: Adobe Illustrator 25.0.1, SVG Export Plug-In . SVG Version: 6.00 Build 0)  -->
<svg version="1.1" id="Layer_1" xmlns="http://www.w3.org/2000/svg" xmlns:xlink="http://www.w3.org/1999/xlink" x="0px" y="0px"
	 viewBox="0 0 512 512" style="enable-background:new 0 0 512 512;" xml:space="preserve">
<path d="M185.6,331.5L185.6,331.5C185.6,331.5,185.7,331.4,185.6,331.5h177.3c4.4,0,8.2-2.9,9.4-7.1l39.2-136.9
	c0.9-3,0.2-6.1-1.6-8.6c-1.9-2.5-4.7-3.9-7.9-3.9H163.1l-7-31.4c-1-4.5-5-7.6-9.5-7.6H88c-5.4,0-9.7,4.4-9.7,9.7
	c0,5.4,4.4,9.7,9.7,9.7h50.8c1.2,5.6,33.4,150.5,35.3,158.8c-10.4,4.5-17.7,14.8-17.7,26.9c0,16.2,13.1,29.3,29.3,29.3H363
	c5.4,0,9.7-4.4,9.7-9.7s-4.4-9.7-9.7-9.7H185.6c-5.4,0-9.7-4.4-9.7-9.7C175.8,335.9,180.2,331.5,185.6,331.5z M389.1,194.6
	l-33.6,117.3H193.4l-26.1-117.3H389.1z"/>
<path d="M175.8,399.9c0,16.2,13.1,29.3,29.3,29.3s29.3-13.1,29.3-29.3s-13.1-29.3-29.3-29.3S175.8,383.7,175.8,399.9z M205.2,390.1
	c5.4,0,9.7,4.4,9.7,9.7s-4.4,9.7-9.7,9.7c-5.4,0-9.7-4.4-9.7-9.7S199.8,390.1,205.2,390.1z"/>
<path d="M314,399.9c0,16.2,13.1,29.3,29.3,29.3c16.2,0,29.3-13.1,29.3-29.3s-13.1-29.3-29.3-29.3C327.1,370.6,314,383.7,314,399.9z
	 M343.4,390.1c5.4,0,9.7,4.4,9.7,9.7s-4.4,9.7-9.7,9.7s-9.7-4.4-9.7-9.7C333.5,394.5,337.9,390.1,343.4,390.1z"/>
</svg>
